<svg xmlns="http://www.w3.org/2000/svg" pointer-events="none" class="leaflet-zoom-animated" width="1284" height="842" viewBox="-107 -70 1284 842" style="transform: translate3d(-107px, -70px, 0px);"><g><path class="leaflet-interactive" stroke="#201920" stroke-opacity="1" stroke-width="2" stroke-linecap="round" stroke-linejoin="round" fill="none" d="M296 308L296 304L295 305L293 301L297 299L296 296L299 293L300 294L303 291L305 291L305 289L308 290L310 288L311 291L317 291L322 283L327 284L330 281L331 282L331 280L337 278L340 275L347 273L347 266L350 263L349 262L352 261L352 257L349 250L349 244L345 242L345 240L358 236L366 238L367 237L364 234L364 232L370 214L377 217L386 218L390 216L392 214L390 203L394 199L396 200L399 198L401 194L400 193L402 191L408 191L410 198L415 200L417 204L423 204L424 207L427 206L427 208L430 210L432 217L434 217L435 220L435 223L433 225L434 228L432 231L433 238L434 237L437 239L438 238L444 240L454 240L465 248L470 248L469 251L471 251L473 258L478 265L484 264L503 267L519 267L526 272L527 271L532 274L542 275L543 277L547 278L550 275L567 268L577 269L588 266L596 258L600 257L603 254L599 248L600 243L603 239L616 243L620 241L625 235L632 235L638 230L637 229L642 224L646 224L647 221L651 222L653 220L658 219L660 221L667 220L666 215L656 205L651 204L647 208L638 206L635 209L632 206L632 204L634 202L641 182L649 186L656 181L662 179L663 176L661 176L661 174L666 167L668 159L671 156L673 156L674 153L673 148L671 146L668 147L668 145L676 137L677 138L693 134L697 134L701 137L702 136L704 139L707 140L713 140L713 143L715 143L716 147L719 149L718 152L720 153L719 154L722 159L721 160L723 161L723 167L726 170L727 177L729 177L728 182L731 186L738 185L738 187L744 187L744 189L746 189L750 194L754 194L752 197L755 201L753 203L757 209L768 208L773 203L775 204L782 200L789 200L786 201L785 206L787 208L781 214L782 215L779 222L780 225L773 238L770 239L763 236L761 238L762 239L756 241L759 251L759 257L757 263L752 265L753 268L750 265L750 263L747 262L746 267L744 269L743 268L740 273L732 273L735 278L733 280L726 279L724 277L725 276L723 276L724 275L721 276L716 285L709 288L703 293M336 375L333 372L333 370L336 367L338 371L340 369L340 365L335 359L335 355L338 352L332 348L330 340L325 341L318 338L318 336L315 337L313 334L314 331L311 328L309 328L309 326L301 324L303 322L305 323M562 465L560 465L561 462L559 462L561 458L559 456L554 457L550 453L548 453L546 457L541 457L538 460L536 458L534 458L531 461L528 458L526 458L525 461L520 460L520 472L516 471L516 467L508 469L508 467L506 467L505 464L501 464L501 458L503 456L498 454L498 450L496 448L498 446L492 446L488 448L487 447L489 445L487 443L489 439L488 438L496 430L495 429L497 425L497 417L494 414L494 416L492 414L492 410L488 408L488 406L486 408L487 409L485 409L486 412L483 414L476 409L472 409L469 410L469 412L466 414L461 415L455 421L451 422L443 422L443 416L439 416L438 411L433 412L424 409L420 413L418 418L416 416L417 411L415 410L413 412L408 413L404 413L399 410L397 412L395 410L395 412L391 408L388 409L387 405L384 406L379 401L379 399L375 401L370 396L368 396L368 394L367 395L366 393L364 393L363 390L358 389L356 393L342 383L339 384L336 381L336 375M571 469L566 468L562 465M574 598L573 589M582 514L585 518L586 523M590 547L588 555M602 619L610 616M632 588L637 582M656 558L659 549M660 516L660 525M668 491L663 499M683 467L677 475M688 452L690 442" id="国界"/><path class="leaflet-interactive" stroke="#201920" stroke-opacity="1" stroke-width="2" stroke-linecap="butt" stroke-linejoin="round" stroke-dasharray="4,4" stroke-dashoffset="4" fill="none" d="M305 323L307 321L305 319L305 311L303 309L300 308L298 310L296 308" id="争议"/><path class="leaflet-interactive" stroke="gray" stroke-opacity="1" stroke-width="1" stroke-linecap="round" stroke-linejoin="round" stroke-dasharray="8,4,4,4" fill="none" d="M616 463L616 463M621 460L619 460L618 463L623 463L623 461L621 460" id="港澳"/><path class="leaflet-interactive" stroke="#4190da" stroke-opacity="1" stroke-width="1" stroke-linecap="round" stroke-linejoin="round" fill="none" d="M620 462L620 460L618 461L617 458L616 463L614 465L613 464L613 466L610 465L608 467L605 466L603 468L593 470L589 473L589 475L592 478L590 480L586 480L584 474L586 470L584 468L582 470L580 470L580 468L571 469M590 472L590 472M590 472L590 474L590 472M616 463L616 463M620 462L620 462M620 462L620 462M620 462L620 462M667 423L664 424L666 424L667 427L664 428L665 431L663 433L667 433L665 435L662 434L662 436L660 436L661 437L660 438L660 436L658 440L657 439L658 440L656 443L653 442L653 444L647 451L643 451L639 457L633 457L631 459L629 457L626 460L624 458L624 460L623 461L623 459L621 461L623 461L620 462M667 423L667 423M682 401L680 405L681 408L678 411L677 410L676 413L675 412L667 425L666 424L668 422L667 423M680 327L678 329L674 329L675 332L674 331L673 334L670 335L670 333L670 335L661 346L671 354L675 364L675 368L680 372L679 373L683 375L683 377L678 375L676 377L678 379M678 379L684 384L683 385L685 387L681 385L676 388L679 389L683 394L685 394L682 396L684 397L683 401M680 327L680 327M680 327L680 327M686 301L683 305L679 307L676 306L681 303L681 301L680 302L677 299L679 299L679 297L686 290L685 287L684 288L682 286L677 285L672 290L672 292L665 295L662 298L662 300L656 304L656 306L653 305L653 303L651 303L649 307L649 311L651 311L651 313L658 314L661 317L662 316L662 318L659 319L659 321L662 324L666 324L666 322L670 319L669 318L673 317L679 319L679 321L685 320L689 322L686 327L680 327M680 327L680 327M682 401L682 401M682 401L682 401M682 401L682 401M683 401L682 401M683 401L683 401M685 393L685 393M685 393L685 393M685 393L685 393M686 393L685 393M685 393L683 391L685 391L686 393M686 393L686 393M686 391L687 390L686 391M686 391L686 391M686 301L686 301M703 293L701 297L695 297L686 301M687 386L687 386M687 386L687 386M689 385L689 385M578 468L578 468M580 473L580 473M583 483L583 483M583 587L584 585L587 586L586 585L583 587M584 498L576 494L576 488L581 483L593 480L596 484L593 487L591 493L585 496L584 498M587 583L588 582L587 583M590 476L590 476M591 472L591 472M591 583L591 583M591 581L592 580L591 581M592 473L592 471L592 473M592 479L592 479M592 581L592 581M592 474L592 474M597 517L597 517M599 507L600 506L599 507M599 577L599 577M599 512L599 512M599 571L599 571M600 585L600 585M600 583L600 583M600 512L600 512M600 511L600 511M600 582L601 583L600 582M600 514L600 514M600 576L601 577L600 576M600 511L600 511M601 584L601 584M601 511L601 511M601 514L602 513L601 514M601 512L602 511L601 512M601 515L601 515M603 581L603 581M603 513L603 513M603 615L603 615M605 575L605 575M605 575L605 575M605 615L605 615M605 509L605 509M605 518L605 518M605 507L606 508L605 507M605 574L606 575L605 574M605 614L605 614M606 574L606 574M606 601L606 601M606 508L606 508M606 509L606 509M607 513L606 514L607 513M607 468L607 468M607 600L607 600M607 516L608 515L607 516M607 512L608 511L607 512M607 569L607 569M607 601L608 600L607 601M607 599L608 600L607 599M608 575L608 575M608 598L608 598M608 605L608 605M608 468L608 468M608 601L608 601M608 603L608 603M608 512L609 513L608 512M608 605L608 605M609 467L608 468L609 467M609 513L609 513M609 510L609 510M610 468L609 467L610 468M610 574L610 574M610 468L610 468M610 509L610 509M610 583L610 583M610 569L610 569M610 569L610 569M611 606L611 606M611 578L611 578M611 486L611 486M611 568L611 568M611 466L611 466M612 465L612 465M612 466L612 466M613 465L613 465M613 595L613 595M613 581L613 581M613 581L614 580L613 581M616 463L616 463M616 563L616 563M616 590L616 590M616 574L617 573L616 574M617 572L617 572M617 465L617 465M617 519L617 519M617 465L617 465M617 465L617 465M617 465L617 465M617 585L618 584L617 585M618 587L618 587M618 461L618 461M618 464L618 464M618 489L618 489M618 463L620 463L618 463M618 565L618 565M618 520L618 520M618 518L619 519L618 518M618 582L619 581L618 582M618 585L623 582L624 583L622 585L618 585M619 574L618 575L619 574M619 517L619 517M619 575L619 575M619 574L620 575L619 574M619 521L619 521M620 565L620 565M620 558L620 558M620 581L620 581M620 516L620 516M620 463L620 463M621 465L621 465M621 570L621 570M621 462L621 462M621 465L621 465M621 575L621 575M621 515L621 515M621 464L621 464M621 520L621 520M621 563L621 563M621 567L621 567M621 463L621 463M621 519L622 520L621 519M622 568L622 568M622 554L622 554M622 460L622 460M622 557L622 557M622 462L622 462M622 564L622 564M622 559L622 559M622 553L622 553M623 515L623 515M623 566L623 566M623 519L623 519M623 567L623 567M623 558L623 558M623 559L623 559M623 566L623 566M623 581L624 580L623 581M624 566L624 566M624 566L624 566M624 554L624 554M624 566L624 566M624 575L625 574L624 575M624 519L624 519M624 566L625 565L624 566M624 554L625 553L624 554M624 461L624 461M625 585L625 585M625 580L625 580M625 562L625 562M625 553L625 553M625 557L626 556L625 557M625 514L625 514M625 567L625 567M626 580L626 580M626 556L626 556M626 517L626 517M626 559L626 559M626 588L626 588M626 582L626 582M627 558L627 558M627 515L627 515M627 586L627 586M627 556L627 556M629 578L630 579L629 578M629 577L630 578L629 577M630 564L630 564M630 533L630 533M631 570L631 570M631 566L631 566M631 578L632 577L631 578M633 561L633 561M633 561L633 561M633 561L633 561M633 562L634 561L633 562M634 561L634 561M634 568L635 567L634 568M634 558L634 558M635 473L635 473M635 472L636 473L635 472M635 571L635 571M636 565L636 565M637 569L637 569M638 574L638 574M639 567L639 567M639 572L639 572M639 567L639 567M639 562L641 562L639 562M640 567L640 567M641 561L641 561M641 513L641 513M641 553L642 554L641 553M641 476L641 476M641 573L641 573M642 475L642 477L642 475M642 561L642 561M645 452L643 452L645 452M645 560L645 560M645 559L645 559M646 563L646 563M646 560L647 559L646 560M646 556L646 556M646 565L646 565M647 557L647 557M649 560L649 560M649 557L649 557M649 523L650 522L649 523M650 559L650 559M652 443L652 443M653 443L652 442L653 443M653 444L654 443L653 444M655 443L654 444L655 443M657 304L657 304M658 303L658 303M658 303L659 304L658 303M663 454L663 454M663 437L664 436L663 437M664 453L664 453M664 450L664 450M664 450L664 450M664 433L664 433M665 428L665 428M665 451L664 452L665 451M665 432L665 432M665 433L665 433M665 424L666 423L665 424M665 435L665 435M665 435L665 435M666 424L666 424M667 433L667 433M667 428L667 428M667 430L667 430M668 452L668 452M668 427L667 428L668 427M668 425L668 425M669 425L669 425M669 424L669 424M669 422L669 422M669 338L669 338M670 421L670 421M670 462L670 462M670 421L670 421M671 318L671 318M672 426L672 426M673 316L672 315L673 316M673 465L669 458L668 451L674 441L679 436L681 436L683 438L683 443L679 455L675 460L675 466L673 465M673 315L673 315M673 316L673 316M674 314L674 314M674 289L674 289M674 312L674 312M675 311L675 311M675 312L675 312M676 331L676 331M676 412L676 412M676 416L676 416M676 412L677 411L676 412M677 412L678 411L677 412M679 376L684 379L683 380L677 376L679 376M679 369L679 369M679 459L679 459M680 464L680 464M681 465L681 465M681 379L681 379M681 401L681 401M682 405L682 405M682 381L680 380L682 381M682 380L684 381L682 380M682 392L682 392M682 404L682 404M682 405L683 404L682 405M683 407L683 407M683 392L682 393L683 392M683 381L683 381M683 407L683 407M683 434L683 434M683 440L683 440M683 392L683 392M683 382L684 381L683 382M683 390L683 390M684 401L684 401M684 395L684 395M684 393L684 393M684 391L684 391M684 387L684 387M684 393L684 393M684 393L684 393M685 393L685 393M685 393L685 393M685 391L685 391M685 390L686 391L685 390M685 391L685 391M685 398L685 398M685 396L684 395L685 396M685 396L685 396M685 393L686 394L685 393M686 394L686 394M686 394L686 394M686 396L685 395L686 396M686 394L687 393L687 395L686 394M687 303L687 303M687 393L687 393M687 389L687 389M688 389L688 389M688 303L688 303M688 302L688 302M688 387L688 387M689 303L690 302L689 303M690 392L690 392M690 305L689 304L690 305M690 386L690 386M690 386L690 386M692 299L691 300L692 299M692 300L692 300M693 305L693 305M694 432L696 432L694 432M696 431L696 431M697 430L698 431L697 430M697 433L697 433M697 432L697 432M697 433L697 433M697 297L697 297M704 430L703 431L704 430" id="海洋"/><path class="leaflet-interactive" stroke="#747569" stroke-opacity="0.6" stroke-width="1" stroke-linecap="round" stroke-linejoin="round" fill="none" d="M424 334L415 331L405 331L397 333L394 338L386 338L379 342L370 341L369 338L365 338L365 340L363 340L361 343L349 341L349 343L347 345L346 344L345 349L343 351L342 350L338 352M488 369L486 369L486 371L483 374L481 374L480 377L477 375L476 378L474 376L471 377L469 375L470 372L469 373L467 371L469 371L467 371L464 368L458 370L453 369L451 367L444 367L439 364L433 364L429 362L423 354L425 354L425 346L423 346L422 343L425 337L421 335L424 334M446 305L439 306L437 308L431 308L430 310L427 311L428 313L430 313L430 318L432 318L437 325L435 325L432 328L432 330L435 331L433 335L427 333L425 335L424 334M521 359L520 360L519 358L517 358L513 354L513 352L514 351L523 354L523 352L525 352L522 349L522 347L526 343L525 342L529 340L528 337L530 337L531 335L529 329L526 326L528 324L522 318L521 319L517 317L508 310L508 312L506 312L498 304L493 305L491 307L486 303L482 303L483 308L480 311L480 313L478 312L476 314L472 311L463 312L461 307L457 308L457 306L452 306L451 303L446 305M478 265L474 268L476 271L474 275L469 277L466 276L458 283L456 287L450 288L448 298L445 302L446 305M541 321L534 317L534 311L538 309L541 304L539 302L540 301L537 300L531 304L527 302L521 304L523 306L521 308L514 305L513 301L503 296L509 288L508 285L500 285L500 287L499 286L496 288L496 286L493 288L493 285L490 283L488 279L489 277L484 264M500 400L498 386L495 381L498 380L494 376L492 370L488 369M521 359L520 364L516 362L517 367L511 369L509 367L508 368L506 364L505 367L498 364L494 354L490 353L488 354L488 356L486 356L486 358L489 361L486 364L487 365L485 365L486 368L488 369M492 410L492 408L496 410L496 402L498 404L498 400L500 400M549 414L548 411L544 413L542 411L542 405L538 405L538 408L534 410L535 413L530 418L531 425L528 428L528 426L521 429L521 427L519 427L519 423L513 415L514 414L512 412L510 414L507 411L507 406L504 404L502 406L502 410L500 408L500 400M551 365L550 368L544 368L541 365L542 362L540 358L533 357L530 352L524 356L527 359L522 364L521 359M568 317L565 314L559 312L563 305L561 301L557 302L557 304L556 303L554 307L554 315L552 318L541 321M541 321L543 321L550 328L549 329L551 333L551 338L553 338L553 340L555 340L558 343L558 339L563 336L563 334L559 332L559 326L561 324L565 324M549 414L549 416L545 418L541 418L538 416L536 420L537 425L543 423L544 424L541 433L544 436L546 436L543 441M543 441L543 443L547 443L549 447L554 446L556 448L555 452L554 451L551 454M583 429L582 432L579 431L578 432L580 432L580 434L577 433L576 436L572 434L573 435L569 437L566 436L565 433L555 441L548 438L544 442L543 441M558 407L556 405L552 407L552 409L553 408L557 410L558 412L556 414L549 414M565 324L565 326L572 330L573 329L576 332L576 341L574 343L569 342L569 346L559 344L560 347L558 349L561 352L559 352L560 359L554 359L553 362L555 363L552 366L551 365M575 372L569 372L568 370L566 370L567 369L565 370L563 368L564 367L557 368L555 366L552 367L551 365M581 407L580 410L578 410L574 402L570 402L568 400L566 400L566 404L563 403L561 407L559 407L559 405L558 407M558 407L557 403L553 403L553 401L549 397L553 393L551 391L555 389L557 391L560 390L560 392L563 393L566 390L566 386L571 385L571 381L575 378L573 374L575 372M565 324L565 320L568 317M596 301L596 299L593 302L590 302L588 300L589 301L587 303L586 302L587 303L580 310L580 315L578 315L576 319L568 317M575 372L584 377M584 377L589 382L589 384L583 388L574 388L574 390L576 391L574 395L576 395L579 398L578 399L580 398L581 401M581 401L581 407M619 402L617 402L616 395L612 398L611 395L606 398L602 394L598 394L596 392L592 392L592 396L585 395L585 397L584 396L581 401M583 429L583 427L581 427L583 419L578 420L578 418L580 418L579 417L583 415L581 407M603 441L602 440L599 442L599 438L595 438L599 431L597 431L596 426L592 426L589 430L587 428L585 430L583 429M595 362L593 364L591 362L583 362L585 366L586 365L589 368L585 368L583 370L584 377M585 469L585 470M585 469L589 465L590 466L590 464L593 463L593 461L596 458L598 458L598 452L604 444L603 441M586 481L587 481M588 481L590 480M590 349L589 346L592 339L590 325L594 319L591 316L591 314L594 311L595 306L597 304L596 301M590 349L595 362M590 349L600 347L603 344L604 345L604 343L610 343L616 339L617 332M591 480L592 479M630 380L628 378L625 379L624 376L619 377L617 373L618 372L616 370L614 372L612 370L605 371L601 369L595 362M595 363L595 363M620 287L620 289L610 291L610 293L607 291L602 299L599 298L599 300L596 301M603 441L605 437L609 437L609 439L611 439L612 436L610 436L612 434L616 436L619 434M631 334L628 333L627 335L617 332M617 332L615 328L617 328L617 326L618 327L617 324L620 321L620 317L618 313L616 313L616 309L618 307L617 305L622 304L624 300L623 297L619 295L619 293L620 294L620 292L623 291L620 287M637 395L635 396L631 394L631 396L629 396L626 399L622 399L619 402M619 434L619 430L621 428L619 428L620 425L618 423L618 418L616 416L616 414L621 409L621 405L619 402M619 434L619 436L625 436L625 438L623 438L621 442L623 443L630 440L634 442L633 441L635 439M661 281L654 280L654 272L653 273L651 271L652 270L650 266L644 268L640 274L639 273L636 276L634 274L630 276L630 278L626 278L627 274L623 272L621 278L618 279L620 287M637 349L637 351L640 352L641 355L638 358L634 354L632 356L633 359L631 359L630 362L626 364L629 367L629 369L635 369L635 375L632 376L630 380M637 395L634 389L634 385L636 383L630 380M651 312L646 317L642 317L639 320L638 319L637 322L635 322L635 324L630 329L631 334M637 349L631 349L631 347L629 347L629 345L628 346L626 344L634 336L636 336L636 334L630 338L631 334M635 439L634 436L641 425L640 422L644 420L645 417L643 415L646 414L646 412L649 413L655 409M645 451L642 442L640 442L638 440L639 439L635 439M653 399L653 397L649 397L646 394L644 394L645 395L642 397L641 396L643 394L641 392L637 395M638 349L637 349M662 345L658 345L658 347L655 348L654 351L651 348L649 350L646 349L646 351L642 345L639 346L638 349M665 382L664 383L662 381L658 381L657 380L659 378L657 378L657 376L656 377L654 375L656 373L655 372L657 372L656 369L660 369L661 366L658 365L658 367L654 367L654 365L651 362L653 358L649 358L650 357L647 354L638 349M647 292L645 290L648 287L644 287L640 283L638 285L639 286L633 289L635 291L631 295L631 297L634 300L638 300L640 298L642 299M649 309L646 310L641 307L643 303L642 299M643 298L642 299M643 298L645 298L645 294M645 294L642 295L643 298M645 451L646 452M647 292L645 294M646 453L647 453M647 292L650 295L648 295L648 297L652 303M653 399L659 393L658 392L663 389L661 387L664 386L665 382M653 399L652 402L655 405L655 409M671 419L670 416L666 418L664 414L661 417L658 416L658 409L655 409M661 281L663 279L663 269L668 274L668 276L674 270L675 271L678 268L682 268L684 265L692 265L695 262L697 262L697 258M666 295L666 292L663 289L661 289L661 287L658 286L661 281M675 383L672 386L665 382M673 420L674 420M674 311L676 311M683 378L678 375L677 381L675 383M678 387L675 383M679 387L680 387M695 217L695 219L694 218L692 220L687 213L688 210L702 198L704 204L706 192L710 190L709 182L716 167L710 159L707 161L707 163L692 164L689 155L690 152L686 148L683 151L681 151L681 149L678 147L682 141L680 137M680 387L681 386M682 386L683 386M684 385L685 385M687 385L688 385M689 384L690 384M759 257L754 257L750 251L748 253L748 251L745 253L744 252L742 256L740 256L736 250L735 245L732 248L733 249L730 250L727 244L724 245L725 240L723 238L715 238L713 234L704 235L700 231L700 225L693 226M693 226L692 222L697 220L697 218L696 219L695 217M693 226L690 228L690 232L687 229L684 230L682 228L681 231L684 233L686 237L684 240L686 248L691 247L693 245L696 254L696 256L694 256L697 258M695 217L695 217M695 217L695 217M695 217L695 217M697 258L698 257L703 262L703 264L706 261L707 262L709 270L711 272L712 271L710 273L710 277L712 277L711 278L714 281L712 285L714 285M554 341L555 340L554 341M583 423L584 422L583 423M611 395L611 395" id="省界"/><path class="leaflet-interactive" stroke="#8B908F" stroke-opacity="0.5" stroke-width="1" stroke-linecap="butt" stroke-linejoin="bevel" fill="#eee" fill-opacity="0.5" fill-rule="evenodd" d="M646 288L648 288L643 287L641 283L636 288L633 289L635 291L634 293L631 294L631 297L634 300L638 300L640 298L641 299L643 297L642 294L647 293L645 291L646 288z" id="北京市"/><path class="leaflet-interactive" stroke="#8B908F" stroke-opacity="0.5" stroke-width="1" stroke-linecap="butt" stroke-linejoin="bevel" fill="#eee" fill-opacity="0.5" fill-rule="evenodd" d="M650 301L651 300L648 297L648 295L650 295L647 292L645 294L645 298L642 299L643 303L641 307L649 309L651 305L650 304L652 302L649 301zM650 301L650 301z" id="天津市"/><path class="leaflet-interactive" stroke="#8B908F" stroke-opacity="0.5" stroke-width="1" stroke-linecap="butt" stroke-linejoin="bevel" fill="#eee" fill-opacity="0.5" fill-rule="evenodd" d="M647 288L645 290L650 295L648 295L648 297L655 306L662 300L662 297L666 295L664 289L662 289L659 286L659 284L662 281L654 280L654 272L653 273L651 271L652 270L650 266L644 268L641 274L635 274L630 276L630 278L627 277L627 274L625 272L623 272L621 278L618 279L618 283L622 291L624 291L619 294L623 296L623 302L619 304L616 309L616 313L619 315L620 318L617 324L618 325L615 329L618 332L627 335L629 333L630 334L630 330L634 326L635 322L638 320L639 321L642 317L646 317L651 312L648 309L644 309L641 307L643 303L641 298L639 300L633 300L631 298L631 295L635 291L633 289L636 288L641 283L643 287L647 288zM645 294L642 295L643 298L645 298L645 294zM650 301L649 301zM658 303L658 304z" id="河北省"/><path class="leaflet-interactive" stroke="#8B908F" stroke-opacity="0.5" stroke-width="1" stroke-linecap="butt" stroke-linejoin="bevel" fill="#eee" fill-opacity="0.5" fill-rule="evenodd" d="M590 349L600 347L603 344L604 345L604 343L610 343L616 339L617 332L615 328L618 326L617 325L620 320L619 315L616 312L618 308L617 305L622 304L624 300L623 297L619 294L624 291L622 291L621 287L616 291L613 290L610 291L609 293L607 291L602 299L600 298L597 301L594 311L591 314L591 316L594 319L590 325L592 337L589 346L590 349z" id="山西省"/><path class="leaflet-interactive" stroke="#8B908F" stroke-opacity="0.5" stroke-width="1" stroke-linecap="butt" stroke-linejoin="bevel" fill="#eee" fill-opacity="0.5" fill-rule="evenodd" d="M484 264L489 277L487 279L493 285L493 288L497 288L499 286L500 287L500 285L507 285L509 288L508 292L503 296L513 301L513 305L516 305L519 308L521 308L523 306L521 304L526 302L530 304L534 301L539 300L541 304L538 309L534 311L534 317L542 321L551 318L554 315L554 307L556 303L557 304L557 302L560 301L563 304L563 306L559 312L562 314L566 314L566 316L571 317L571 319L576 319L577 316L580 315L579 312L587 303L586 302L587 303L589 301L588 300L590 302L592 302L595 299L597 301L600 298L601 299L607 291L609 293L613 290L616 291L620 289L618 279L621 278L623 272L625 272L627 274L626 277L629 278L634 274L636 276L639 273L640 274L643 272L643 268L647 268L650 266L652 270L651 271L653 273L654 272L654 280L661 281L663 279L663 273L661 271L663 269L668 274L668 276L674 270L675 271L678 268L682 268L688 264L691 265L697 261L697 259L694 256L696 256L696 254L693 245L686 249L684 242L686 238L681 231L682 228L684 230L687 229L690 232L690 228L693 226L692 222L697 220L696 217L694 217L695 218L693 220L691 219L691 217L687 213L688 210L696 205L702 198L704 204L706 192L710 190L709 182L716 167L710 159L707 161L707 163L692 163L689 156L690 151L688 151L685 148L682 151L678 147L682 141L681 138L676 137L668 145L668 147L673 147L674 154L667 161L668 162L663 169L664 170L661 176L663 176L662 179L649 186L641 182L634 198L634 202L632 203L632 206L635 209L638 206L647 209L651 204L656 205L666 215L667 220L665 222L660 221L658 219L650 222L648 221L646 224L642 224L637 230L638 231L633 235L625 235L620 241L616 243L610 242L607 239L602 239L599 247L603 255L595 259L590 265L578 269L567 268L558 271L547 278L544 277L543 275L532 274L528 271L526 272L519 267L498 267L485 265z" id="内蒙古自治区"/><path class="leaflet-interactive" stroke="#8B908F" stroke-opacity="0.5" stroke-width="1" stroke-linecap="butt" stroke-linejoin="bevel" fill="#eee" fill-opacity="0.5" fill-rule="evenodd" d="M696 297L700 297L707 289L708 290L714 285L714 281L711 278L712 277L710 277L710 273L712 271L711 272L709 270L709 266L706 261L703 264L703 261L698 257L696 262L693 263L694 264L687 264L687 266L685 265L682 268L678 268L668 276L668 274L663 269L661 271L663 273L663 278L659 283L659 286L662 289L664 289L666 295L672 292L672 290L677 285L682 285L686 289L683 292L684 293L679 297L680 298L677 300L681 302L681 304L680 303L680 305L679 304L677 308L682 305L683 306L682 305L688 300L696 297zM689 302L689 302zM686 303L686 303zM689 302L690 303L689 302zM690 305L689 304L690 305zM692 299L691 300L692 299zM688 302L688 303zM674 289L674 289zM692 300L692 300zM693 305L693 305zM697 297L698 297z" id="辽宁省"/><path class="leaflet-interactive" stroke="#8B908F" stroke-opacity="0.5" stroke-width="1" stroke-linecap="butt" stroke-linejoin="bevel" fill="#eee" fill-opacity="0.5" fill-rule="evenodd" d="M745 269L747 262L749 262L753 268L753 266L751 265L755 264L758 261L759 258L751 255L751 251L749 253L747 251L743 253L742 256L740 256L736 250L735 245L732 248L733 249L730 250L727 244L724 245L725 240L723 238L715 238L713 234L709 236L707 234L704 235L700 231L700 227L698 225L694 225L690 228L690 232L687 229L684 230L682 228L681 231L684 233L686 238L684 240L686 248L688 249L693 245L696 254L696 256L694 256L696 258L698 257L701 260L702 259L702 262L704 264L706 261L707 262L709 270L711 272L712 271L710 273L710 277L712 277L711 278L714 281L714 285L717 284L723 275L727 279L734 280L732 273L740 273L743 268L745 269z" id="吉林省"/><path class="leaflet-interactive" stroke="#8B908F" stroke-opacity="0.5" stroke-width="1" stroke-linecap="butt" stroke-linejoin="bevel" fill="#eee" fill-opacity="0.5" fill-rule="evenodd" d="M696 226L700 226L700 230L704 235L707 234L709 236L713 234L715 238L723 238L725 240L724 245L727 244L731 250L733 250L732 247L735 245L736 250L740 256L742 256L742 254L747 251L749 253L751 251L751 255L757 258L758 251L756 242L763 237L772 240L773 239L773 235L780 224L779 223L782 215L781 214L786 209L786 201L789 199L773 203L770 206L769 205L770 206L768 208L757 209L753 204L755 202L752 197L754 194L750 194L743 187L740 188L737 185L731 186L729 184L729 177L727 177L726 170L723 167L724 164L722 164L723 161L721 160L722 159L719 155L720 154L716 146L717 145L713 143L714 142L712 140L706 140L696 134L681 136L680 137L682 141L677 147L680 148L681 151L683 151L686 148L690 152L689 155L692 164L707 163L709 159L716 166L714 174L709 181L710 189L706 191L704 204L702 198L691 209L688 210L687 213L692 220L694 218L695 219L695 217L696 219L697 218L697 220L692 221L693 225L696 226z" id="黑龙江省"/><path class="leaflet-interactive" stroke="#8B908F" stroke-opacity="0.5" stroke-width="1" stroke-linecap="butt" stroke-linejoin="bevel" fill="#eee" fill-opacity="0.5" fill-rule="evenodd" d="M675 383L679 387L684 384L679 379L677 379L675 383zM683 378L678 375L677 376L680 379L684 379zM682 381L680 379L682 381zM682 380L685 381L682 380zM681 379L680 379zM683 382L683 381zM683 381L683 381z" id="上海市"/><path class="leaflet-interactive" stroke="#8B908F" stroke-opacity="0.5" stroke-width="1" stroke-linecap="butt" stroke-linejoin="bevel" fill="#eee" fill-opacity="0.5" fill-rule="evenodd" d="M646 350L645 351L642 346L638 348L645 354L648 354L650 358L652 358L651 363L653 363L655 367L659 365L661 367L660 370L656 368L657 371L654 375L656 377L657 376L657 378L659 378L657 381L663 381L662 382L666 382L672 386L679 378L677 377L678 375L683 378L683 375L675 367L671 354L663 348L661 344L658 345L655 351L653 351L651 348L649 350L646 350z" id="江苏省"/><path class="leaflet-interactive" stroke="#8B908F" stroke-opacity="0.5" stroke-width="1" stroke-linecap="butt" stroke-linejoin="bevel" fill="#eee" fill-opacity="0.5" fill-rule="evenodd" d="M655 409L658 410L658 416L661 417L665 414L666 417L670 416L672 419L673 415L677 413L676 410L677 411L681 409L681 401L684 400L682 396L685 394L681 393L676 388L678 386L675 383L672 386L666 382L664 386L661 387L663 389L660 390L658 392L659 393L652 400L652 402L655 405L655 408zM685 393L686 394L686 392L684 391L685 393zM685 391L685 392zM686 396L686 396zM687 386L687 386zM685 390L686 391L685 390zM686 391L686 390zM684 401L684 400zM687 394L687 394zM687 389L687 389zM682 404L683 404zM686 394L686 395zM682 401L682 401zM677 415L677 415zM683 386L684 387L683 386zM683 407L683 407zM685 396L684 395L685 396zM687 393L687 394zM688 387L688 387zM683 407L683 407zM684 391L684 391zM687 393L687 393zM682 393L683 392L682 393zM676 416L676 416zM683 400L684 401L683 400zM684 395L684 396zM683 392L683 392zM683 390L683 390zM685 393L685 393zM686 396L686 395zM677 413L677 413zM690 392L690 392zM686 390L686 390zM686 394L686 394zM690 386L690 386zM676 412L677 411L676 412zM677 412L678 411L677 412zM687 393L687 393zM690 386L690 386zM685 393L686 393zM684 393L684 393zM676 412L676 411zM687 394L687 394zM685 393L685 393z" id="浙江省"/><path class="leaflet-interactive" stroke="#8B908F" stroke-opacity="0.5" stroke-width="1" stroke-linecap="butt" stroke-linejoin="bevel" fill="#eee" fill-opacity="0.5" fill-rule="evenodd" d="M640 355L641 356L637 358L633 354L633 359L631 359L630 362L626 364L629 367L629 369L635 369L635 376L633 376L630 379L634 383L636 383L633 387L637 395L640 394L640 392L643 394L641 396L642 397L645 394L647 394L648 397L655 398L659 393L658 392L663 389L661 387L663 387L665 383L662 382L663 381L657 381L659 379L655 375L657 371L656 368L660 370L661 367L659 365L655 367L653 363L651 363L653 358L649 358L650 356L648 354L644 354L639 349L637 350L638 352L640 352L640 355zM658 379L659 379zM641 396L641 396zM631 370L631 370z" id="安徽省"/><path class="leaflet-interactive" stroke="#8B908F" stroke-opacity="0.5" stroke-width="1" stroke-linecap="butt" stroke-linejoin="bevel" fill="#eee" fill-opacity="0.5" fill-rule="evenodd" d="M660 439L659 436L661 438L660 437L663 436L661 436L661 434L667 434L663 432L665 432L665 428L667 426L665 424L667 424L667 422L668 423L666 425L669 424L668 423L671 420L671 418L666 418L664 414L662 417L659 416L657 408L654 409L654 411L650 413L647 412L644 415L645 417L640 422L641 425L639 429L636 431L634 439L638 439L640 441L639 442L642 441L643 448L646 451L653 445L652 442L656 443L658 441L657 440L660 439zM655 443L654 444L655 443zM663 437L664 436L663 437zM664 433L664 433zM667 428L667 427zM653 444L653 443zM667 423L667 423zM653 443L652 442L653 443zM667 428L667 428zM665 428L664 428zM668 425L668 425zM665 433L665 432zM666 424L666 424zM669 424L669 424zM670 421L670 421zM669 422L669 422zM665 424L666 423L665 424z" id="福建省"/><path class="leaflet-interactive" stroke="#8B908F" stroke-opacity="0.5" stroke-width="1" stroke-linecap="butt" stroke-linejoin="bevel" fill="#eee" fill-opacity="0.5" fill-rule="evenodd" d="M653 399L652 397L648 397L647 394L645 394L642 397L641 396L643 394L641 392L635 396L631 394L631 396L629 396L626 399L622 399L619 402L621 404L621 409L617 413L616 417L618 417L617 420L620 425L619 427L621 427L619 435L625 436L621 441L623 443L630 440L633 442L634 441L636 432L641 425L640 422L645 418L644 415L647 412L650 413L655 410L655 406L652 402L653 399z" id="江西省"/><path class="leaflet-interactive" stroke="#8B908F" stroke-opacity="0.5" stroke-width="1" stroke-linecap="butt" stroke-linejoin="bevel" fill="#eee" fill-opacity="0.5" fill-rule="evenodd" d="M638 349L639 346L642 345L645 350L649 350L651 348L654 351L656 348L658 348L657 347L659 345L663 344L663 342L670 335L670 333L670 335L673 334L674 331L675 332L674 329L675 330L683 326L686 327L689 321L679 321L679 319L673 317L669 318L670 319L666 322L666 324L662 324L659 320L662 319L662 317L659 314L656 315L651 312L646 317L642 317L639 320L638 319L638 321L637 320L638 321L635 322L635 324L630 329L630 338L636 334L636 336L634 336L626 344L633 350L638 349zM673 316L674 316zM673 315L673 315zM676 331L675 331zM674 314L674 313zM675 312L675 311zM669 338L669 337zM673 316L672 315zM674 312L674 312zM680 319L680 319zM680 319L680 319zM680 319L680 319zM631 336L631 336z" id="山东省"/><path class="leaflet-interactive" stroke="#8B908F" stroke-opacity="0.5" stroke-width="1" stroke-linecap="butt" stroke-linejoin="bevel" fill="#eee" fill-opacity="0.5" fill-rule="evenodd" d="M609 371L612 370L615 372L617 370L619 377L624 377L625 379L628 378L630 380L631 377L635 376L635 370L631 370L629 366L626 365L630 363L633 354L637 358L641 356L637 349L631 349L631 347L629 347L628 345L627 346L626 343L636 335L631 336L630 338L631 335L629 333L627 335L618 332L616 339L611 343L604 342L603 345L590 350L597 366L604 371L608 371zM617 371L617 372z" id="河南省"/><path class="leaflet-interactive" stroke="#8B908F" stroke-opacity="0.5" stroke-width="1" stroke-linecap="butt" stroke-linejoin="bevel" fill="#eee" fill-opacity="0.5" fill-rule="evenodd" d="M596 363L583 363L586 366L588 366L587 369L584 368L583 372L584 377L588 380L589 384L582 388L574 388L576 391L574 395L576 395L579 398L578 399L580 398L581 401L582 398L584 396L585 397L585 395L592 396L592 392L602 394L605 397L609 397L611 395L612 398L616 394L616 400L618 402L621 399L627 399L626 398L632 394L635 396L636 395L636 391L634 389L634 385L636 383L632 382L628 378L625 379L624 376L619 377L617 371L604 371L601 368L600 369L596 363zM580 388L580 388zM596 363L596 363zM609 371L609 371zM610 395L611 395z" id="湖北省"/><path class="leaflet-interactive" stroke="#8B908F" stroke-opacity="0.5" stroke-width="1" stroke-linecap="butt" stroke-linejoin="bevel" fill="#eee" fill-opacity="0.5" fill-rule="evenodd" d="M603 441L605 437L609 437L609 439L611 439L610 436L612 434L616 436L619 433L619 429L621 428L619 428L620 425L618 423L618 417L616 417L616 415L617 412L620 411L619 410L621 408L621 404L618 401L617 402L616 395L612 398L611 395L609 397L605 397L602 394L591 392L591 396L583 396L581 400L581 411L583 415L581 417L580 416L580 418L577 420L582 419L584 421L584 423L582 423L581 426L586 431L586 428L590 430L592 427L598 427L597 430L599 430L595 439L599 437L599 441L603 440zM583 423L583 423z" id="湖南省"/><path class="leaflet-interactive" stroke="#8B908F" stroke-opacity="0.5" stroke-width="1" stroke-linecap="butt" stroke-linejoin="bevel" fill="#eee" fill-opacity="0.5" fill-rule="evenodd" d="M616 463L617 459L623 461L624 458L626 460L629 457L631 459L633 457L639 457L642 454L642 452L645 451L642 441L639 442L640 441L638 439L634 439L634 442L632 442L631 440L623 443L621 441L625 437L624 435L619 436L619 434L613 434L611 436L610 435L612 437L610 439L608 437L604 438L605 439L603 441L603 447L598 452L599 455L596 459L593 460L592 463L590 463L589 466L588 465L586 468L585 467L586 470L584 474L586 480L590 480L592 478L589 475L591 471L603 468L605 466L613 466L616 463zM644 452L644 452zM610 467L609 468L610 467zM607 468L608 468zM621 464L621 464zM591 472L592 473L592 471L591 472zM607 468L607 467zM591 473L589 473L592 473zM617 465L617 465zM617 465L617 465zM612 466L612 466zM618 461L618 461zM621 465L621 465zM621 465L620 465zM642 475L643 476L641 477L643 477L642 475zM611 466L611 466zM590 476L590 476zM592 474L592 474zM592 479L592 479zM635 472L636 473L635 472zM635 473L635 473zM634 458L634 458zM634 458L634 458z" id="广东省"/><path class="leaflet-interactive" stroke="#8B908F" stroke-opacity="0.5" stroke-width="1" stroke-linecap="butt" stroke-linejoin="bevel" fill="#eee" fill-opacity="0.5" fill-rule="evenodd" d="M583 429L582 432L579 431L578 432L580 432L578 434L577 433L576 436L575 434L573 434L572 437L570 437L564 433L562 437L555 441L548 438L545 442L543 442L550 447L555 446L557 448L556 451L554 451L551 454L554 457L559 456L561 458L559 462L561 463L560 465L571 469L576 467L579 468L579 470L581 470L584 468L585 469L585 467L586 468L589 465L590 466L590 464L593 463L593 461L599 456L599 450L603 448L602 446L604 444L602 440L599 442L598 437L596 439L595 438L599 431L597 431L597 427L592 427L589 430L587 428L586 431L583 429zM548 439L548 439zM580 473L580 473z" id="广西壮族自治区"/><path class="leaflet-interactive" stroke="#8B908F" stroke-opacity="0.5" stroke-width="1" stroke-linecap="butt" stroke-linejoin="bevel" fill="#eee" fill-opacity="0.5" fill-rule="evenodd" d="M588 482L581 483L576 488L576 494L578 496L584 498L592 492L592 489L596 485L593 481L588 481zM605 615L605 615zM613 581L614 580zM603 615L603 615zM599 507L600 506L599 507zM649 523L649 522zM605 614L605 614zM601 514L602 514zM600 514L601 514zM618 585L622 585L624 583L623 582L619 585zM619 574L620 575L619 574zM619 575L619 575zM603 513L603 513zM601 512L602 511L601 512zM605 575L605 575zM618 587L618 587zM621 575L621 575zM605 507L606 508L605 507zM625 562L625 562zM634 568L634 567zM624 566L625 565zM617 585L618 584zM583 587L585 585L587 586L583 586zM638 574L638 574zM607 516L608 515L607 516zM608 575L608 575zM623 558L624 558zM607 513L607 513zM639 562L640 562zM606 508L606 508zM599 512L600 512zM631 566L632 566zM625 580L625 580zM623 581L624 580zM629 578L630 579L629 578zM618 582L619 581zM631 570L631 570zM639 572L639 572zM616 574L617 573L616 574zM625 557L626 556L625 557zM624 554L624 553zM627 558L627 558zM600 512L600 512zM619 574L619 575zM587 583L587 582zM641 553L642 554L641 553zM601 511L601 511zM607 512L608 511L607 512zM601 515L602 515zM618 565L618 564zM626 580L626 580zM640 567L640 568zM630 564L630 564zM642 561L642 561zM625 514L625 514zM635 571L635 571zM617 572L617 572zM625 585L625 585zM623 559L624 559zM650 559L650 559zM621 563L621 563zM625 553L625 553zM641 561L641 561zM591 581L592 580L591 581zM599 577L599 577zM629 577L630 577zM613 581L613 581zM620 558L620 558zM646 563L646 562zM621 515L621 515zM592 581L592 581zM631 578L632 577zM600 585L600 585zM600 576L601 576zM591 583L591 583zM606 574L606 574zM639 567L639 567zM603 581L603 581zM623 519L623 519zM627 556L628 556zM620 516L620 516zM636 565L636 564zM646 560L646 559zM626 588L626 588zM610 574L610 574zM601 584L601 584zM605 575L605 575zM607 599L608 599zM624 575L624 574zM626 582L626 581zM611 578L611 578zM616 590L616 590zM641 513L641 513zM646 565L646 564zM611 486L611 486zM623 515L623 515zM618 489L618 489zM608 605L609 605zM600 582L600 582zM605 574L606 574zM610 583L611 583zM608 601L608 601zM607 601L607 600zM630 533L630 533zM616 563L616 563zM618 520L618 520zM611 606L611 606zM608 605L608 605zM606 601L606 601zM605 509L605 509zM605 518L605 518zM608 603L608 603zM607 600L607 600zM613 595L613 595zM637 569L637 569zM627 586L627 585zM600 583L600 583zM619 517L619 517zM627 515L627 516zM641 573L641 573zM608 512L609 512zM597 483L597 483zM633 562L634 562zM645 559L645 560zM609 513L609 513zM634 561L634 561zM607 569L608 569zM624 519L624 519zM646 556L646 557zM649 557L649 557zM621 570L621 570zM625 567L625 568zM608 598L608 598z" id="海南省"/><path class="leaflet-interactive" stroke="#8B908F" stroke-opacity="0.5" stroke-width="1" stroke-linecap="butt" stroke-linejoin="bevel" fill="#eee" fill-opacity="0.5" fill-rule="evenodd" d="M558 407L559 404L560 407L564 403L565 404L567 400L569 400L570 403L574 401L574 405L576 405L576 407L579 410L582 406L582 402L580 398L578 398L578 396L574 395L576 391L574 389L576 389L577 387L580 388L588 385L589 382L587 379L585 377L581 377L579 374L575 372L575 374L573 374L575 378L571 382L572 381L570 386L566 386L567 387L563 393L561 393L560 390L557 391L553 389L553 391L551 391L553 393L550 399L553 400L553 402L555 402L558 406zM580 387L580 388zM552 392L552 392zM580 388L580 388zM563 393L563 393z" id="重庆市"/><path class="leaflet-interactive" stroke="#8B908F" stroke-opacity="0.5" stroke-width="1" stroke-linecap="butt" stroke-linejoin="bevel" fill="#eee" fill-opacity="0.5" fill-rule="evenodd" d="M516 419L521 429L530 426L530 418L535 413L535 409L536 410L538 408L537 407L541 405L541 409L543 409L541 411L543 413L549 411L550 414L557 414L557 410L553 408L552 409L552 407L555 404L558 407L557 403L553 403L553 401L549 397L553 394L552 391L551 392L554 389L557 391L560 390L560 392L563 393L567 386L571 385L571 381L575 378L573 374L575 374L575 372L571 372L568 370L567 371L567 369L564 370L563 367L556 368L556 366L554 366L552 368L551 365L550 368L544 368L541 365L542 362L540 358L533 357L530 352L525 355L527 359L522 364L521 359L520 364L516 362L517 367L511 369L509 367L508 368L506 364L505 367L498 364L494 354L488 354L486 358L489 361L486 363L487 364L485 366L493 372L497 380L495 382L498 386L500 407L502 410L502 406L504 404L508 408L507 411L510 414L512 412L516 419zM557 391L557 391zM563 392L563 392zM551 391L551 391z" id="四川省"/><path class="leaflet-interactive" stroke="#8B908F" stroke-opacity="0.5" stroke-width="1" stroke-linecap="butt" stroke-linejoin="bevel" fill="#eee" fill-opacity="0.5" fill-rule="evenodd" d="M581 407L580 410L578 410L577 407L576 408L576 406L574 405L574 401L570 403L570 401L567 400L566 403L564 403L560 407L559 404L558 407L555 404L552 407L552 409L553 408L557 410L557 413L551 413L548 417L545 418L542 416L540 418L538 416L536 420L537 425L544 424L541 433L544 436L546 436L543 440L545 442L549 438L555 442L557 440L556 439L562 437L564 433L566 434L566 436L571 437L573 435L572 434L576 435L576 433L578 434L580 432L578 432L579 431L582 432L583 427L581 427L581 423L583 423L583 419L578 420L580 418L579 417L583 415L581 407zM583 422L583 422zM583 423L584 423z" id="贵州省"/><path class="leaflet-interactive" stroke="#8B908F" stroke-opacity="0.5" stroke-width="1" stroke-linecap="butt" stroke-linejoin="bevel" fill="#eee" fill-opacity="0.5" fill-rule="evenodd" d="M549 414L547 410L546 412L543 413L541 411L543 409L541 409L542 406L538 406L538 408L536 410L535 409L534 414L530 418L531 425L528 428L528 426L522 429L515 419L513 415L514 414L512 412L510 414L507 411L508 408L504 404L502 406L502 410L500 408L500 400L498 400L498 404L496 402L495 405L497 408L495 410L493 408L492 409L493 416L496 415L497 418L497 428L495 428L496 430L488 438L489 439L487 443L489 445L487 447L488 448L492 446L498 446L496 448L498 451L497 452L499 455L503 455L500 463L505 464L509 469L513 469L515 467L517 469L516 470L520 472L521 467L519 462L521 460L524 461L527 458L531 461L534 458L538 460L541 457L542 459L546 457L545 456L548 453L551 454L554 451L556 451L557 448L555 446L550 447L547 443L543 443L545 438L545 436L542 433L544 424L542 423L538 425L536 422L538 416L540 418L542 416L546 418L549 415z" id="云南省"/><path class="leaflet-interactive" stroke="#8B908F" stroke-opacity="0.5" stroke-width="1" stroke-linecap="butt" stroke-linejoin="bevel" fill="#eee" fill-opacity="0.5" fill-rule="evenodd" d="M424 334L415 331L405 331L397 333L394 338L393 337L391 339L388 337L379 342L370 341L369 338L365 338L365 340L363 340L361 343L349 341L349 343L347 345L346 344L345 349L343 351L339 351L335 355L335 359L340 366L339 371L337 371L336 368L333 369L333 373L336 375L336 381L339 384L342 383L347 388L348 387L352 389L356 393L358 389L363 390L375 401L377 399L380 400L379 401L384 406L387 405L389 409L392 408L394 412L396 410L396 412L400 410L403 413L411 413L413 411L417 411L416 416L418 418L425 409L433 411L435 413L437 411L439 415L443 417L444 422L455 421L461 415L466 414L469 412L469 410L472 409L476 409L483 413L486 411L485 410L487 406L492 410L492 408L496 410L496 402L498 404L498 400L500 400L498 391L499 390L497 383L495 381L498 380L494 376L492 370L485 369L486 372L485 371L484 374L480 374L481 377L477 375L476 378L474 376L471 377L469 375L470 372L467 372L468 371L463 368L455 370L450 367L444 367L439 364L433 364L429 362L423 355L425 353L425 346L423 346L422 343L425 337L421 335L424 334z" id="西藏自治区"/><path class="leaflet-interactive" stroke="#8B908F" stroke-opacity="0.5" stroke-width="1" stroke-linecap="butt" stroke-linejoin="bevel" fill="#eee" fill-opacity="0.5" fill-rule="evenodd" d="M590 349L589 346L592 339L590 325L594 319L591 313L595 309L595 305L597 302L596 299L592 302L588 300L589 301L587 303L586 302L587 303L580 310L580 315L578 315L576 319L572 319L569 316L565 320L565 326L572 330L573 329L576 332L576 342L569 342L569 346L559 344L560 347L558 349L561 352L559 352L560 354L558 356L560 359L554 359L553 362L555 363L553 366L551 366L555 366L557 368L563 367L564 370L567 369L567 371L568 370L571 373L574 372L584 377L583 370L585 368L589 368L586 365L585 366L585 364L583 363L592 362L593 364L595 362L590 349zM595 360L595 360zM556 367L556 367z" id="陕西省"/><path class="leaflet-interactive" stroke="#8B908F" stroke-opacity="0.5" stroke-width="1" stroke-linecap="butt" stroke-linejoin="bevel" fill="#eee" fill-opacity="0.5" fill-rule="evenodd" d="M559 338L558 343L554 341L555 340L553 340L550 337L550 327L543 321L538 320L536 317L534 317L534 311L538 309L541 304L539 300L534 301L531 304L526 302L523 303L523 306L521 308L514 305L513 301L511 301L505 296L502 296L507 292L509 288L508 285L500 285L500 287L499 286L496 288L496 286L493 288L493 285L490 283L488 279L488 273L484 264L476 266L474 268L476 271L475 274L469 277L466 276L458 283L456 287L450 288L448 298L445 302L446 305L448 303L452 303L452 306L456 306L458 308L461 307L463 311L472 311L476 314L478 312L480 313L480 311L483 308L483 303L492 307L493 304L495 306L497 304L500 305L499 306L506 312L508 313L508 310L511 313L512 312L516 317L524 319L531 335L522 347L522 349L525 352L521 354L514 351L513 352L516 358L521 360L522 359L522 363L525 362L524 361L526 361L527 359L524 355L526 355L529 352L532 354L533 357L540 358L542 362L541 365L544 368L550 368L551 365L554 365L554 359L560 359L559 352L561 352L558 349L560 347L559 344L568 346L570 345L568 343L569 342L575 343L575 337L577 335L576 331L567 327L564 324L560 324L560 328L558 330L559 333L563 335L562 338L560 338zM555 340L556 340zM529 332L530 332zM556 341L556 341zM559 338L559 338z" id="甘肃省"/><path class="leaflet-interactive" stroke="#8B908F" stroke-opacity="0.5" stroke-width="1" stroke-linecap="butt" stroke-linejoin="bevel" fill="#eee" fill-opacity="0.5" fill-rule="evenodd" d="M529 332L529 328L523 318L522 319L520 317L516 317L514 313L513 314L508 310L508 312L506 312L498 304L496 304L495 306L493 304L491 307L486 303L482 303L483 308L480 311L480 313L478 312L476 314L472 311L463 312L461 307L458 308L456 306L452 306L452 304L449 303L437 308L432 308L427 311L428 313L431 312L430 318L437 324L432 327L432 329L435 330L435 333L433 335L427 333L425 335L421 335L425 337L422 342L422 344L425 347L425 353L423 355L429 362L433 364L436 363L444 367L453 368L455 370L463 368L470 373L469 375L471 377L474 376L476 378L477 375L481 377L480 374L481 375L484 374L485 371L486 372L485 369L487 369L486 364L488 361L486 357L489 353L494 355L497 362L501 366L504 367L506 365L508 367L507 368L510 367L512 369L517 367L516 362L519 362L520 364L521 360L517 358L513 353L515 351L520 354L525 352L522 349L522 347L526 343L525 342L529 340L528 338L531 335L530 332z" id="青海省"/><path class="leaflet-interactive" stroke="#8B908F" stroke-opacity="0.5" stroke-width="1" stroke-linecap="butt" stroke-linejoin="bevel" fill="#eee" fill-opacity="0.5" fill-rule="evenodd" d="M565 324L565 320L568 317L565 314L559 312L563 305L561 301L557 302L557 304L556 303L554 307L554 315L552 318L541 321L543 321L550 328L549 329L551 333L551 338L553 338L553 340L555 340L558 343L558 338L562 338L563 335L559 332L559 326L561 324L565 324zM555 340L555 341zM556 341L556 341z" id="宁夏回族自治区"/><path class="leaflet-interactive" stroke="#8B908F" stroke-opacity="0.5" stroke-width="1" stroke-linecap="butt" stroke-linejoin="bevel" fill="#eee" fill-opacity="0.5" fill-rule="evenodd" d="M478 265L474 260L471 251L469 251L470 248L466 248L454 240L444 240L438 238L437 239L435 237L434 238L432 233L435 228L433 225L435 221L434 217L432 217L428 208L422 204L419 205L415 203L415 201L410 197L411 196L408 195L408 190L406 192L401 191L401 195L396 200L394 199L390 203L392 212L390 216L386 218L377 217L370 214L364 232L364 234L367 236L366 238L361 237L360 235L358 237L351 239L350 238L345 241L349 244L349 250L352 257L352 260L349 262L350 263L347 266L348 271L343 275L331 280L330 282L328 282L328 284L321 284L316 291L313 290L311 292L311 288L307 290L304 289L305 291L303 291L300 294L299 293L296 296L297 299L294 300L295 305L296 304L295 307L298 310L299 308L304 310L306 318L305 319L307 321L305 323L301 323L312 328L314 330L313 335L316 337L317 336L325 341L330 340L330 344L332 346L331 348L337 352L345 350L346 345L349 343L349 341L361 343L366 338L368 338L371 341L376 342L388 337L390 339L393 338L398 333L402 333L405 331L415 331L425 335L427 333L433 335L435 331L432 328L437 324L431 318L431 312L428 313L427 310L445 305L450 288L456 287L460 281L466 276L468 276L469 278L471 275L473 275L476 271L474 268L476 266z" id="新疆维吾尔自治区"/><path class="leaflet-interactive" stroke="#8B908F" stroke-opacity="0.5" stroke-width="1" stroke-linecap="butt" stroke-linejoin="bevel" fill="#eee" fill-opacity="0.5" fill-rule="evenodd" d="M671 461L674 466L675 460L679 455L683 443L683 437L677 437L672 443L670 449L668 450L670 460zM704 430L704 430zM695 432L696 431L695 432zM665 451L664 452zM697 430L697 430zM664 450L663 451L664 450zM664 453L664 453zM664 450L664 450zM684 433L684 433zM679 459L680 459zM680 464L680 464zM684 434L685 434zM663 454L663 454zM670 462L671 462z" id="台湾省"/><path class="leaflet-interactive" stroke="#8B908F" stroke-opacity="0.5" stroke-width="1" stroke-linecap="butt" stroke-linejoin="bevel" fill="#eee" fill-opacity="0.5" fill-rule="evenodd" d="M620 460L620 462L618 462L619 463L623 461L620 460zM620 463L621 463zM622 461L622 461zM622 461L622 461zM622 461L622 461zM622 462L622 462zM622 461L622 461zM622 462L622 462zM622 462L622 462z" id="香港特别行政区"/><path class="leaflet-interactive" stroke="#8B908F" stroke-opacity="0.5" stroke-width="1" stroke-linecap="butt" stroke-linejoin="bevel" fill="#eee" fill-opacity="0.5" fill-rule="evenodd" d="M616 464L616 463zM616 463L616 463z" id="澳门特别行政区"/><path class="leaflet-interactive" stroke="#8B908F" stroke-opacity="0.5" stroke-width="1" stroke-linecap="butt" stroke-linejoin="bevel" fill="#eee" fill-opacity="0.5" fill-rule="evenodd" d="M688 452L690 442L688 452zM677 475L683 467L677 475zM663 499L668 490L663 499zM660 524L660 515L660 524zM657 556L656 558L659 549L658 552zM632 589L637 582L632 589zM606 618L602 619L610 616L607 617zM573 597L574 598L573 590L573 597zM588 554L590 551L590 547L589 553zM586 522L582 514L585 520z" id="100000_JD"/></g></svg>